<svg width="474" height="474" viewBox="0 0 474 474" fill="none" xmlns="http://www.w3.org/2000/svg">
<rect width="473.58" height="473.58" rx="35" fill="#F4F1EB"/>
<path d="M143.5 337.45L152.425 293.675L257.825 197.2H176.225L188.975 136H372.15L362.8 181.05L260.375 276.25H345.375L332.625 337.45H143.5Z" fill="#ADB5BD"/>
<path d="M134.15 337.45L143.075 293.675L248.475 197.2H166.875L179.625 136H362.8L353.45 181.05L251.025 276.25H336.025L323.275 337.45H134.15Z" fill="#6C757D"/>
<path d="M123.95 337.45L132.875 293.675L238.275 197.2H156.675L169.425 136H352.6L343.25 181.05L240.825 276.25H325.825L313.075 337.45H123.95Z" fill="#495057"/>
<path d="M112.9 337.45L121.825 293.675L227.225 197.2H145.625L158.375 136H341.55L332.2 181.05L229.775 276.25H314.775L302.025 337.45H112.9Z" fill="#343A40"/>
<path d="M101 337.45L109.925 293.675L215.325 197.2H119.275L132.025 136H329.65L320.3 181.05L217.875 276.25H302.875L290.125 337.45H101Z" fill="#161718"/>
</svg>
