<svg fill="none" height="474" viewBox="0 0 474 474" width="474" xmlns="http://www.w3.org/2000/svg"><rect fill="#f4f1eb" height="473.58" rx="35" width="473.58"/><path d="m143.5 337.45 8.925-43.775 105.4-96.475h-81.6l12.75-61.2h183.175l-9.35 45.05-102.425 95.2h85l-12.75 61.2z" fill="#adb5bd"/><path d="m134.15 337.45 8.925-43.775 105.4-96.475h-81.6l12.75-61.2h183.175l-9.35 45.05-102.425 95.2h85l-12.75 61.2z" fill="#6c757d"/><path d="m123.95 337.45 8.925-43.775 105.4-96.475h-81.6l12.75-61.2h183.175l-9.35 45.05-102.425 95.2h85l-12.75 61.2z" fill="#495057"/><path d="m112.9 337.45 8.925-43.775 105.4-96.475h-81.6l12.75-61.2h183.175l-9.35 45.05-102.425 95.2h85l-12.75 61.2z" fill="#343a40"/><path d="m101 337.45 8.925-43.775 105.4-96.475h-96.05l12.75-61.2h197.625l-9.35 45.05-102.425 95.2h85l-12.75 61.2z" fill="#161718"/></svg>