<svg width="59" height="59" viewBox="0 0 59 59" fill="none" xmlns="http://www.w3.org/2000/svg">
<circle cx="29.5" cy="29.5" r="29.5" fill="#FFFEF7"/>
<path d="M29.8383 4.51104C30.6795 4.84208 31.4623 5.22593 32.1367 5.80752C32.3773 6.01493 32.6204 6.21633 32.7907 6.48737C32.9554 6.74965 33.1933 6.82332 33.4757 6.75252C34.1874 6.57404 34.9166 6.5315 35.641 6.44477C36.1965 6.37826 36.749 6.26201 37.3093 6.28687C38.0093 6.31793 38.7085 6.36373 39.4077 6.42847C40.0805 6.49076 40.7387 6.59349 41.3858 6.76296C42.2468 6.98843 43.0666 7.32186 43.7248 7.94767C44.2431 8.44041 44.8482 8.82235 45.3765 9.30355C46.7126 10.5204 47.8463 11.8749 48.5828 13.5505C49.0327 14.574 49.2809 15.6477 49.5545 16.7196C49.8188 17.755 49.9985 18.8052 50.1336 19.8641C50.2201 20.5422 50.2107 21.2256 50.2515 21.9062C50.3016 22.7418 50.2171 23.5749 50.2307 24.4092C50.2451 25.2983 50.0708 26.1723 50.0314 27.0547C49.9967 27.8312 49.782 28.5749 49.7094 29.3422C49.6877 29.5718 49.62 29.7984 49.5881 30.0302C49.5436 30.3536 49.382 30.5839 49.0162 30.582C48.7123 30.5805 48.408 30.793 48.1019 30.5706C48.027 30.5161 47.9393 30.5669 47.901 30.6515C47.8395 30.7874 47.759 30.9222 47.8069 31.0808C47.9193 31.153 48.0288 31.1202 48.1381 31.0994C49.1204 30.9121 50.4681 31.5665 50.8785 32.4713C51.0595 32.8702 51.038 33.3271 51.0677 33.7605C51.1102 34.38 51.0873 35.002 51.1219 35.6237C51.1629 36.3613 51.0059 37.0762 50.7326 37.7677C50.2943 38.8768 49.6569 39.8608 48.942 40.809C48.6624 41.1798 48.4014 41.5687 48.107 41.929C47.4613 42.7194 46.6492 43.2799 45.6776 43.5979C45.4717 43.6653 45.2752 43.7406 45.1047 43.8742C45.0221 43.9389 44.9296 43.9791 44.8288 43.999C44.3839 44.0866 44.0532 44.3491 43.8673 44.7422C43.4127 45.7033 42.7313 46.5004 42.0514 47.294C41.5555 47.8729 41.0867 48.4751 40.5454 49.0183C40.0489 49.5168 39.536 49.9969 38.9956 50.4416C38.6523 50.7241 38.4682 51.141 38.0912 51.3846C37.5031 51.7647 36.9961 52.2616 36.3554 52.5696C36.1007 52.692 35.8762 52.8766 35.6358 53.0295C35.5158 53.1058 35.3992 53.2008 35.2668 53.2423C34.4665 53.4933 33.6969 53.8306 32.8478 53.9428C32.2984 54.0153 31.7543 54.0348 31.2056 54.0494C30.9295 54.0567 30.6614 54.1181 30.3902 54.1629C29.9262 54.2397 29.459 54.1556 28.9928 54.1601C28.6274 54.1636 28.2624 54.1581 27.8994 54.2042C27.6618 54.2344 27.4428 54.1664 27.2123 54.1239C26.0409 53.9079 25.0451 53.3193 24.0738 52.6829C23.4446 52.2706 22.7871 51.8933 22.227 51.3844C21.7231 50.9265 21.2419 50.4435 20.7424 49.9805C19.9728 49.2672 19.3607 48.4021 18.5419 47.7342C18.0075 47.2983 17.6298 46.723 17.2796 46.1346C17.1233 45.8721 16.9883 45.5971 16.8331 45.3339C16.4556 44.6939 15.8476 44.5103 15.1538 44.4849C14.8966 44.4755 14.658 44.3567 14.4032 44.3099C13.9863 44.2335 13.5609 44.1906 13.1729 43.9762C12.5311 43.6217 12.017 43.1239 11.6556 42.5094C11.0938 41.5541 10.5938 40.5616 10.0885 39.5742C9.75918 38.9307 9.50143 38.2518 9.22691 37.5846C8.95204 36.9166 8.79372 36.1765 8.91207 35.4626C9.10152 34.3198 9.56411 33.306 10.7328 32.8072C10.9383 32.7194 11.121 32.5808 11.3457 32.5354C11.5839 32.4873 11.8051 32.535 12.0261 32.6283C12.1267 32.6708 12.2502 32.6886 12.3391 32.5875C12.3912 32.5282 12.3901 32.4526 12.3405 32.3901C12.2535 32.2805 12.1442 32.3196 12.0325 32.3463C11.8443 32.3913 11.3499 32.1249 11.2218 31.9215C11.0417 31.6353 10.8111 31.3988 10.5265 31.2137C10.46 31.1704 10.3959 31.1129 10.3515 31.0479C10.0815 30.6529 9.79194 30.2684 9.55706 29.8531C9.06948 28.9912 8.68531 28.0765 8.51434 27.1008C8.37095 26.2824 8.30936 25.4528 8.43594 24.6116C8.51684 24.0739 8.44266 23.5145 8.49605 22.9706C8.53283 22.5959 8.62672 22.2169 8.73728 21.8576C9.00341 20.9926 9.28426 20.1277 9.63282 19.2935C10.2935 17.7123 11.0917 16.2049 12.1176 14.8183C12.8982 13.7632 13.6178 12.6631 14.5037 11.6887C15.1625 10.9641 15.887 10.3087 16.6336 9.67688C16.6492 9.6637 16.6638 9.64891 16.6811 9.6384C17.932 8.8763 19.0309 7.88271 20.3512 7.22694C20.6043 7.10122 20.867 6.99471 21.1329 6.87592C20.3585 6.21742 20.8337 5.27174 21.6038 4.9302C22.645 4.4684 23.7447 4.22995 24.8753 4.10597C26.1059 3.97103 27.3341 3.94749 28.5581 4.13867C28.9885 4.20589 29.4107 4.33348 29.8383 4.51104ZM39.1552 49.3657C39.8165 48.7468 40.4277 48.0835 41.0163 47.3935C41.9011 46.3561 42.8073 45.3412 43.3704 44.0768C43.8326 43.0389 43.886 41.9326 43.9244 40.8249C43.9435 40.2756 43.9392 39.7264 44.0602 39.1856C44.1023 38.9973 44.2153 38.9277 44.3924 38.9601C44.5688 38.9924 44.7264 39.1009 44.6966 39.2835C44.6142 39.7894 44.6272 40.297 44.6179 40.8046C44.6102 41.2219 44.5972 41.6397 44.6085 42.0566C44.6166 42.356 45.0716 42.8631 45.3664 42.9354C45.4483 42.9555 45.5282 42.9397 45.6053 42.9074C46.4712 42.5444 47.1752 41.964 47.7478 41.2351C48.2128 40.6432 48.6357 40.0176 49.0643 39.398C49.7375 38.4247 50.2556 37.3775 50.3772 36.1856C50.4723 35.254 50.4004 34.3174 50.3012 33.3878C50.2823 33.2108 50.3633 33.0215 50.2437 32.8526C49.9412 32.4251 49.6522 31.9829 49.0292 32.023C48.9598 32.0274 48.8877 32.0062 48.8181 31.9912C48.2967 31.8789 47.8126 32.023 47.3872 32.291C47.0832 32.4824 46.9483 32.8611 46.7539 33.1583C46.4826 33.5733 46.4132 34.0884 46.2891 34.5705C46.2622 34.6753 46.1906 34.8029 46.3008 34.8829C46.4148 34.9658 46.528 34.8823 46.6367 34.8185C47.064 34.5677 47.4735 34.2893 47.9885 34.2175C48.2962 34.1746 48.5401 34.2553 48.7302 34.4667C48.902 34.6577 48.8338 34.8905 48.7286 35.0976C48.5058 35.5362 48.1879 35.9017 47.8099 36.2501C47.9675 36.4971 48.2 36.713 48.205 37.045C48.2188 37.9604 47.9154 38.785 47.4732 39.5627C47.3385 39.7998 47.1007 39.9341 46.797 39.854C46.0516 39.6575 45.9575 39.4625 46.2655 38.7428C46.2896 38.6866 46.3072 38.6267 46.3377 38.5743C46.6198 38.0903 46.3911 37.6691 46.1665 37.2547C46.0948 37.1224 45.9795 37.0671 45.8596 37.2396C45.7498 37.3976 45.6154 37.5358 45.5138 37.7033C45.3502 37.9728 45.1334 38.2003 44.783 38.169C44.4891 38.1428 43.9635 37.6525 43.8984 37.3915C43.7323 36.7265 43.8158 36.0601 43.8687 35.392C43.8867 35.1635 43.9709 34.9214 43.7956 34.6315C43.676 35.1144 43.5694 35.5316 43.47 35.9505C43.4062 36.2199 43.3684 36.4991 43.0425 36.5972C42.9407 36.6279 42.9326 36.7368 42.9069 36.823C42.7588 37.3192 42.6106 37.8153 42.4676 38.3129C42.4351 38.426 42.391 38.5216 42.2817 38.5779C41.9047 38.7724 41.6761 39.1152 41.454 39.451C41.1245 39.9491 40.6545 40.2505 40.1239 40.4736C39.7922 40.6131 39.4058 40.5512 39.0816 40.683C38.4535 40.9386 37.8357 41.0073 37.1818 40.8114C36.8447 40.7105 36.4977 40.6232 36.1491 40.5866C35.9122 40.5617 35.6825 40.5423 35.474 40.4281C34.8876 40.1066 34.2648 39.847 33.7566 39.3927C33.2326 38.9243 32.7024 38.4768 32.4067 37.8014C32.1033 37.1081 31.9342 36.3726 31.6628 35.6699C31.5427 35.3589 31.4881 35.0686 31.0681 35.1087C31.024 35.113 30.9772 35.0637 30.9287 35.0505C30.6675 34.9796 30.421 34.9033 30.1289 34.9253C29.8124 34.9492 29.4876 35.18 29.1782 34.9057C29.0787 35.1146 29.1135 35.2888 29.1136 35.4592C29.1142 36.111 29.0305 36.7557 28.8082 37.3646C28.6427 37.8181 28.4528 38.2714 28.1068 38.6386C27.8854 38.8735 27.7425 39.1783 27.4662 39.3695C27.4127 39.4066 27.3662 39.4805 27.3529 39.5449C27.2351 40.1159 26.7908 40.4283 26.3352 40.6345C25.6821 40.93 24.9847 41.1542 24.2386 41.0779C24.1038 41.0641 23.971 41.0898 23.8556 41.1606C23.6184 41.306 23.3584 41.3418 23.0906 41.3214C22.6274 41.2861 22.1594 41.312 21.7019 41.199C21.4368 41.1335 21.1638 41.0996 20.8982 41.0356C20.5236 40.9454 20.1156 40.8794 19.7972 40.7017C19.3097 40.4296 18.8533 40.0716 18.4828 39.6335C18.4104 39.5479 18.3544 39.4502 18.2495 39.3979C17.6797 39.1133 17.3557 38.6259 17.1071 38.0606C16.9699 37.7485 16.7418 37.4649 16.7303 37.1148C16.7051 36.3539 16.4093 35.6168 16.5462 34.8414C16.5798 34.6511 16.4459 34.5365 16.264 34.5977C16.1027 34.6521 15.7779 34.5218 15.8176 34.8581C15.9226 35.7448 16.0704 36.6264 16.1791 37.5127C16.2506 38.0955 16.3365 38.681 16.2077 39.2704C16.0697 39.902 15.8151 40.1013 15.2459 39.9855C15.0047 39.9364 14.8399 39.7639 14.6843 39.5857C14.3794 39.2364 14.183 38.8213 13.9741 38.4138C13.9193 38.3069 13.8632 38.2024 13.7228 38.307C13.5842 38.4104 13.3892 39.0663 13.4351 39.2395C13.5183 39.5531 13.6131 39.8537 13.7947 40.1356C13.9901 40.4389 13.831 40.7735 13.4917 40.8917C12.9154 41.0924 12.4187 40.8316 12.2209 40.2247C11.9336 39.3434 11.7409 38.4318 12.2526 37.5452C12.3608 37.3579 12.2915 37.2659 12.0875 37.2355C11.8615 37.2019 11.7028 37.2987 11.5452 37.4494C11.273 37.7097 11.0391 37.6771 10.8816 37.367C10.6146 36.8413 10.8413 35.7387 11.6519 35.5383C11.9233 35.4712 12.196 35.4637 12.4717 35.4776C12.6717 35.4876 12.7735 35.3804 12.7319 35.1971C12.6063 34.6438 12.487 34.0835 12.1998 33.586C12.0099 33.2572 11.6479 33.1541 11.2954 33.2937C9.85558 33.8636 9.4627 35.1504 9.66441 36.5139C9.78467 37.3268 10.1513 38.087 10.4962 38.8364C10.857 39.6203 11.2942 40.3655 11.6967 41.1283C12.0742 41.8435 12.4418 42.5528 13.0718 43.0892C13.2718 43.2595 13.4816 43.3963 13.7403 43.4298C14.3402 43.5077 14.9295 43.6765 15.5504 43.5543C15.91 43.4835 16.2 43.2064 16.1783 42.8352C16.1531 42.405 16.0169 41.9975 15.9139 41.5833C15.8624 41.3759 15.8055 41.1667 15.8188 40.9523C15.8287 40.7939 15.8947 40.6477 16.0728 40.6125C16.2443 40.5785 16.3648 40.6628 16.4484 40.8118C16.5802 41.0467 16.6394 41.3125 16.6808 41.566C16.7988 42.2868 17.0091 42.9877 17.0983 43.7153C17.1794 44.3774 17.4653 44.968 17.7925 45.5545C18.1618 46.2164 18.5722 46.8149 19.1318 47.3378C19.8663 48.0242 20.5427 48.7741 21.2274 49.5122C21.8387 50.1711 22.5086 50.7629 23.2389 51.28C23.8354 51.7025 24.4626 52.0829 25.0865 52.4652C26.0964 53.084 27.1438 53.5835 28.3842 53.3997C29.1692 53.2834 29.9526 53.5114 30.742 53.4021C31.5568 53.2892 32.3941 53.3746 33.1981 53.1527C33.8045 52.9854 34.4268 52.8569 34.9956 52.5823C35.4151 52.3798 35.795 52.0994 36.1921 51.8549C36.753 51.5095 37.3319 51.1504 37.7826 50.6814C38.214 50.2325 38.6746 49.8218 39.1552 49.3657ZM30.3027 33.7703C30.7151 33.793 31.1369 33.7878 31.3938 34.175C31.5306 34.0991 31.5292 33.9987 31.541 33.9117C31.6127 33.3817 31.8618 32.925 32.1497 32.4918C32.2872 32.285 32.315 32.0913 32.2587 31.8605C32.1905 31.5806 32.4359 31.3695 32.7191 31.4553C32.8429 31.4928 32.9442 31.5981 33.1031 31.5802C33.232 31.3353 33.3561 31.111 33.6953 31.0441C34.6322 30.8593 35.5837 30.9208 36.525 30.8223C37.641 30.7054 38.7639 30.7378 39.8838 30.7601C40.3388 30.7691 40.8021 30.7745 41.2457 30.8937C41.4231 30.9413 41.5763 31.0245 41.7704 30.9484C41.9393 30.8822 42.0634 31.0068 42.0968 31.1448C42.1492 31.3606 42.3004 31.4297 42.4734 31.5009C42.8224 31.6446 43.1662 31.7954 43.4291 32.0853C43.5231 32.1891 43.6455 32.272 43.8103 32.2253C43.8586 32.0906 43.8314 31.9588 43.7932 31.8349C43.6136 31.2531 43.441 30.669 43.1734 30.1182C42.9557 29.67 43.0803 29.3183 43.5238 29.0734C43.6122 29.0246 43.7146 28.9754 43.7694 28.8974C43.8636 28.7632 43.8732 28.5957 43.7397 28.482C43.5897 28.3541 43.5331 28.5214 43.462 28.6092C43.3435 28.7556 43.1853 28.849 43.026 28.9394C42.4257 29.2798 42.0608 29.0727 42.0536 28.3876C42.0499 28.0367 42.053 27.6857 42.053 27.3199C41.9694 27.3362 41.9322 27.3321 41.9139 27.3487C41.4841 27.7386 40.979 27.7721 40.4352 27.6916C39.7485 27.5899 39.2368 27.1709 38.7127 26.776C38.5007 26.6164 38.486 26.4041 38.6654 26.1891C38.7363 26.1042 38.7987 26.009 38.8481 25.9101C39.1388 25.3285 39.0882 24.7072 39.0496 24.0883C39.0445 24.0058 39.0269 23.9241 38.9103 23.9089C38.8224 23.948 38.8076 24.0441 38.7636 24.1221C38.5107 24.5706 38.3668 25.1018 37.9326 25.4187C37.4782 25.7503 37.0263 26.1332 36.3871 26.0112C36.2262 25.9804 36.0912 25.9283 36.0239 25.7709C35.9558 25.6114 36.0488 25.495 36.1475 25.3892C36.8387 24.6487 37.0044 23.7558 36.907 22.7859C36.9003 22.7192 36.8724 22.6691 36.7927 22.6655C36.6884 22.6962 36.6758 22.7981 36.6431 22.879C36.4621 23.3282 36.1695 23.7112 35.8989 24.1037C35.5657 24.5871 34.946 24.6696 34.2064 24.3724C33.9005 24.2495 33.8484 24.1148 34.014 23.8319C34.096 23.6916 34.182 23.5466 34.2954 23.4329C35.0271 22.7001 35.0997 21.7808 35.0457 20.8259C35.0268 20.491 34.9724 20.1579 34.958 19.823C34.9203 18.9434 34.8138 18.7818 33.9828 18.4757C33.7776 18.4002 33.5844 18.2712 33.3401 18.3285C32.9632 18.4169 32.5573 18.8779 32.4828 19.3414C32.457 19.5019 32.4215 19.6383 32.2398 19.6881C32.047 19.741 31.9301 19.6466 31.8308 19.5013C31.6411 19.2239 31.4492 18.948 31.2592 18.6709C31.1389 18.4955 31.009 18.4397 30.839 18.6162C30.7461 18.7127 30.6293 18.8027 30.4918 18.7854C30.0989 18.7359 29.8257 18.9429 29.5408 19.1663C29.2403 19.4018 29.2014 19.6916 29.2581 20.0354C29.3128 20.3667 29.3928 20.691 29.4679 21.0176C29.7049 22.0469 30.2575 22.8818 31.0134 23.5942C31.1595 23.7319 31.2793 23.8577 31.1733 24.0631C31.0697 24.2641 30.8994 24.2647 30.7005 24.2161C30.0455 24.0561 29.5398 23.6649 29.0704 23.2061C28.9502 23.0887 28.8328 22.8309 28.6435 22.9652C28.4904 23.0739 28.6262 23.3074 28.6862 23.4714C28.8396 23.8912 29.0266 24.2992 29.1711 24.7218C29.2555 24.9687 29.339 25.158 29.6383 25.2106C29.8772 25.2527 29.9155 25.4774 29.9138 25.6955C29.9128 25.8272 29.8946 25.9719 29.7406 25.9692C29.5023 25.9651 29.3487 26.1224 29.159 26.2114C28.7089 26.4225 28.3185 26.7912 27.8155 26.8515C26.9472 26.9555 26.0907 26.8497 25.2805 26.4969C24.6754 26.2333 24.2298 25.7742 23.8326 25.2626C23.7769 25.1909 23.7319 25.091 23.6186 25.1402C23.5274 25.1798 23.5547 25.275 23.5457 25.3554C23.5161 25.6177 23.6313 25.8539 23.6683 26.1037C23.733 26.5397 23.8856 26.9261 24.2665 27.1856C24.3948 27.273 24.4417 27.392 24.4631 27.5443C24.5169 27.9277 24.2275 28.0059 23.9796 28.1471C23.2394 28.5683 22.0746 28.2899 21.6331 27.5726C21.3604 27.1294 21.1339 26.6664 21.0135 26.156C20.9896 26.0543 20.9935 25.928 20.8531 25.888C20.646 26.0419 20.7977 26.2348 20.8087 26.3969C20.845 26.9333 20.8758 27.4779 21.0498 27.9894C21.2212 28.4932 21.472 28.9598 21.9102 29.2995C22.0466 29.4051 22.1166 29.5655 22.0435 29.7357C21.9754 29.8944 21.8147 29.8711 21.6712 29.8814C21.4695 29.8959 21.295 29.7956 21.106 29.7681C20.3227 29.6541 19.7229 29.217 19.1771 28.6867C18.9843 28.4994 18.8137 28.2891 18.6372 28.0938C18.5895 28.1264 18.5628 28.1344 18.5581 28.1493C18.3664 28.7612 18.2528 29.3643 18.6449 29.955C18.8193 30.2177 18.7236 30.4937 18.4633 30.536C18.1997 30.5787 17.9219 30.5826 17.6953 30.4176C17.3667 30.1784 17.0044 29.9849 16.7105 29.6978C16.6555 29.6441 16.6028 29.5685 16.4655 29.6148C16.3633 30.7122 16.7042 31.8349 16.3586 32.94C16.7422 32.9383 17.0485 32.6913 17.0932 32.3785C17.1059 32.2902 17.1305 32.2072 17.2092 32.1774C17.6325 32.0173 18.0072 31.7036 18.4955 31.7474C18.7195 31.7675 18.868 31.6812 18.9662 31.4872C19.0684 31.2855 19.2084 31.1104 19.36 30.9446C19.5571 30.7289 19.7684 30.7088 19.9926 30.8995C20.1041 30.9943 20.226 31.0119 20.3604 31.0171C21.0101 31.0417 21.6564 31.1054 22.3015 31.1836C22.5033 31.208 22.6871 31.307 22.8983 31.3027C23.9181 31.2822 24.9261 31.3822 25.9254 31.5926C26.124 31.6344 26.3443 31.6637 26.5436 31.5194C26.8811 31.275 27.0506 31.3318 27.1972 31.7309C27.2545 31.887 27.3156 31.9947 27.5022 31.9062C27.6525 31.835 27.7509 31.9329 27.8584 32.0113C27.989 32.1066 28.0885 32.2346 28.2435 32.3074C28.6782 32.5118 28.8826 32.8723 28.9274 33.3479C28.9656 33.7538 29.1238 34.1421 29.1118 34.5675C29.2456 34.447 29.2308 34.278 29.3257 34.1445C29.5645 33.8086 29.911 33.8192 30.3027 33.7703ZM24.9652 33.3038C24.7732 33.2838 24.5814 33.2486 24.3893 33.2466C23.6772 33.239 22.9649 33.242 22.2527 33.242C22.1193 33.242 21.9846 33.2479 21.8783 33.1472C21.732 33.0087 21.5516 32.9995 21.3646 32.9991C20.743 32.9979 20.1212 32.9983 19.4997 32.9867C19.0784 32.9788 19.0519 32.9982 18.9413 33.4115C18.8934 33.5909 18.8666 33.8303 18.6164 33.832C18.3806 33.8335 18.3921 33.6109 18.3568 33.4459C18.3525 33.426 18.3436 33.4073 18.3381 33.3877C18.3 33.2509 18.2319 33.1275 18.0747 33.1367C17.9252 33.1454 17.8344 33.264 17.8217 33.4039C17.7942 33.7043 17.6744 34 17.7713 34.3088C17.8029 34.4094 17.7931 34.5187 17.7192 34.5985C17.5647 34.7651 17.6068 34.9604 17.6301 35.1495C17.6786 35.5421 17.7574 35.9318 17.7893 36.3255C17.9019 37.7124 18.6582 38.6707 19.8363 39.2973C20.6968 39.7549 21.6302 40.0179 22.613 40.1324C23.5147 40.2375 24.3697 40.0594 25.1693 39.7328C26.076 39.3625 26.7747 38.7356 27.3022 37.8362C27.9377 36.7525 28.2202 35.6349 28.2239 34.4123C28.225 34.0542 27.9657 33.6757 27.6352 33.5679C27.495 33.5222 27.3854 33.4495 27.2728 33.357C27.1461 33.2528 27.0038 33.1005 26.8159 33.1843C26.2297 33.4456 25.6263 33.3796 24.9652 33.3038ZM32.5919 35.2345C32.604 35.8407 32.8201 36.3941 33.0915 36.9163C33.3193 37.3546 33.4873 37.8353 33.876 38.1814C34.7435 38.9537 35.8613 39.2101 36.9005 39.5973C37.6711 39.8845 38.5271 39.7961 39.3446 39.655C39.6086 39.6095 39.8734 39.552 40.0892 39.3405C40.7763 38.6671 41.279 37.8621 41.8011 37.065C42.2631 36.3597 42.5156 35.6008 42.634 34.7723C42.6919 34.3668 42.657 33.9614 42.7167 33.5568C42.7473 33.3503 42.705 33.0925 42.4768 32.9232C42.3139 33.1134 42.1528 33.2458 41.9093 33.0483C41.3117 32.5639 40.5854 32.6034 39.8783 32.5739C39.8046 32.5708 39.7362 32.6018 39.6869 32.657C39.5128 32.8521 39.2815 32.8697 39.0433 32.8743C38.0044 32.8945 36.9656 32.9162 35.9268 32.9376C35.8758 32.9387 35.8244 32.9384 35.7741 32.9454C35.1654 33.0297 34.5641 33.0347 33.9687 32.8405C33.719 32.7591 33.4669 32.7642 33.2864 33.0176C33.1845 33.1607 33.048 33.2741 32.8815 33.3332C32.6719 33.4076 32.5865 33.5647 32.5405 33.7652C32.4313 34.2414 32.443 34.7133 32.5919 35.2345ZM25.7518 6.48667C26.4213 6.49406 27.0699 6.71171 27.7945 6.74251C26.67 5.48185 23.4152 5.729 22.0018 6.58697C22.6815 6.46991 23.3451 6.39664 24.0192 6.39484C24.5806 6.39335 25.1324 6.51822 25.7518 6.48667Z" fill="#191816"/>
<path d="M31.9199 49.6841C31.0506 49.5425 30.2372 49.2823 29.4133 49.0647C29.326 49.0417 29.2194 49.0094 29.144 49.0388C28.8204 49.1648 28.6995 48.928 28.5724 48.7276C28.4313 48.5052 28.5052 48.2738 28.6184 48.0641C28.684 47.9427 28.8035 47.8927 28.952 47.8893C29.5087 47.8764 30.0454 47.975 30.5653 48.1648C31.2333 48.4086 31.9386 48.5384 32.5876 48.8422C32.8654 48.9722 33.0444 49.2145 33.001 49.5108C32.9596 49.7931 32.7273 49.8183 32.511 49.8048C32.3206 49.793 32.1333 49.7315 31.9199 49.6841Z" fill="#191816"/>
<path d="M32.4167 42.9589C31.9187 43.2443 31.4234 43.4797 30.9032 43.6611C30.5503 43.784 30.2338 43.7119 30.1143 43.4834C29.988 43.242 30.0678 42.9057 30.3592 42.7054C30.8589 42.3621 31.4144 42.1354 32.027 42.0946C32.2709 42.0784 32.4584 42.2084 32.5618 42.4328C32.6536 42.6317 32.617 42.8095 32.4167 42.9589Z" fill="#191816"/>
<path d="M39.5697 42.4253C39.992 42.7395 40.1401 43.2235 40.4165 43.615C40.5193 43.7606 40.4531 44.0131 40.2846 44.1365C40.0973 44.2736 39.9333 44.1324 39.8035 44.0024C39.4925 43.6909 39.2681 43.3126 39.0372 42.9427C38.9624 42.8229 38.9803 42.6632 39.0852 42.5426C39.2097 42.3996 39.3607 42.3374 39.5697 42.4253Z" fill="#191816"/>
<path d="M20.9101 43.7325C21.0739 43.967 21.2262 44.1824 21.3709 44.4028C21.4722 44.557 21.5516 44.7203 21.5326 44.9156C21.5178 45.0685 21.4475 45.1602 21.2884 45.1741C21.0504 45.1949 20.7008 44.9537 20.6472 44.7151C20.6117 44.5574 20.5249 44.4396 20.4171 44.3292C20.2659 44.1743 20.1532 43.9943 20.0832 43.7898C20.0488 43.6894 20.0411 43.5868 20.1391 43.5124C20.2316 43.4421 20.3323 43.3939 20.4483 43.4589C20.5982 43.5428 20.7464 43.6299 20.9101 43.7325Z" fill="#191816"/>
<path d="M19.4801 43.8862C19.6828 44.0971 19.6977 44.3612 19.7759 44.5988C19.8226 44.7406 19.7913 44.8581 19.6546 44.9375C19.529 45.0105 19.4059 45.0233 19.2867 44.9276C19.0949 44.7735 18.9286 44.5986 18.8391 44.3631C18.7708 44.1835 18.6929 44.0069 18.6369 43.8236C18.5764 43.6252 18.603 43.4249 18.7854 43.307C18.969 43.1884 19.0768 43.3656 19.1962 43.4671C19.3236 43.5753 19.3945 43.7221 19.4801 43.8862Z" fill="#191816"/>
<path d="M41.0457 42.2347C41.3431 42.626 41.6088 43.0072 41.605 43.5068C41.6038 43.6648 41.5597 43.7935 41.4021 43.844C41.2403 43.8958 41.1036 43.8102 41.0486 43.6755C40.9069 43.3293 40.6883 43.0132 40.6245 42.6363C40.5706 42.3181 40.6923 42.195 41.0457 42.2347Z" fill="#191816"/>
<path d="M21.2754 37.242C21.0196 36.8097 21.0066 36.3153 20.8147 35.8599C20.3856 36.0133 20.0982 36.2953 19.8405 36.6131C19.7363 36.7416 19.6489 36.899 19.4479 36.8145C19.2635 36.7369 19.16 36.5935 19.1669 36.3837C19.1693 36.3124 19.1761 36.2394 19.1645 36.1699C19.081 35.6706 19.339 35.3709 19.7358 35.1268C20.7627 34.495 21.8664 34.1945 23.0769 34.2565C23.5541 34.281 24.0339 34.2746 24.5106 34.3165C25.1362 34.3716 25.7562 34.4563 26.3327 34.7332C26.9843 35.0461 27.0613 35.7353 26.9392 36.3047C26.9022 36.4775 26.7637 36.5256 26.6053 36.4449C26.4293 36.3552 26.2883 36.2287 26.2162 36.0339C26.136 35.8175 25.9813 35.6857 25.7333 35.6491C25.6477 35.7875 25.6822 35.9319 25.7083 36.0637C25.8524 36.7923 25.6499 37.4803 25.2489 38.0371C24.8577 38.5805 24.2034 38.8191 23.5104 38.742C22.5248 38.6325 21.7848 38.1203 21.2754 37.242Z" fill="#191816"/>
<path d="M34.7351 34.6928C34.9828 34.5137 35.2453 34.3966 35.45 34.1901C35.5318 34.1076 35.6565 34.043 35.7712 34.0219C36.6936 33.8521 37.6053 33.533 38.5633 33.797C38.621 33.8129 38.6862 33.8193 38.7449 33.8104C39.3383 33.7213 39.9009 33.7924 40.4857 33.9614C40.8232 34.059 41.1271 34.1642 41.4202 34.3498C41.9497 34.6852 42.125 35.196 42.1512 35.7768C42.1647 36.0746 41.9867 36.2355 41.705 36.2386C41.3452 36.2426 41.2225 36.1301 41.2065 35.7814C41.1942 35.5134 40.5558 34.9726 40.2904 35.0066C40.0837 35.0331 40.1208 35.1958 40.1499 35.3127C40.2621 35.7616 40.1754 36.1744 39.9804 36.5822C39.816 36.9258 39.5643 37.2159 39.2498 37.3813C37.9836 38.0469 36.8761 37.8916 35.8266 36.7458C35.5631 36.4583 35.4946 36.1069 35.4557 35.7413C35.4233 35.4363 35.364 35.4137 35.0973 35.5472C34.7475 35.7222 34.5285 36.0352 34.2621 36.297C34.1092 36.4472 33.9588 36.5404 33.7496 36.4386C33.5515 36.3422 33.5864 36.1689 33.5946 35.9892C33.618 35.4797 34.0313 35.2572 34.3348 34.9569C34.4411 34.8517 34.5879 34.7874 34.7351 34.6928Z" fill="#191816"/>
</svg>
